<?xml version="1.0" standalone="no"?>
<!DOCTYPE svg PUBLIC "-//W3C//DTD SVG 20010904//EN"
 "http://www.w3.org/TR/2001/REC-SVG-20010904/DTD/svg10.dtd">
<svg version="1.0" xmlns="http://www.w3.org/2000/svg"
 width="500.000000pt" height="500.000000pt" viewBox="0 0 500.000000 500.000000"
 preserveAspectRatio="xMidYMid meet">
<metadata>
Created by potrace 1.14, written by Peter Selinger 2001-2017
</metadata>
<g transform="translate(0.000000,500.000000) scale(0.100000,-0.100000)"
fill="#000000" stroke="none">
<path d="M860 3839 c-69 -116 -134 -228 -146 -248 -12 -20 -39 -66 -62 -103
-26 -42 -36 -68 -29 -70 7 -2 292 -4 635 -4 616 1 622 1 623 -19 0 -11 1 -496
2 -1077 l0 -1058 64 -66 63 -67 0 1206 0 1207 -588 2 -589 3 113 190 112 190
1338 2 c737 1 1353 2 1369 3 30 0 29 1 -35 60 l-65 59 -1340 0 -1340 1 -125
-211z"/>
<path d="M2445 3690 l-40 -5 1 -45 c1 -25 2 -52 3 -60 1 -13 104 -15 875 -15
871 0 874 0 864 -20 -11 -20 -159 -277 -164 -284 -2 -2 -371 -4 -821 -5 l-818
-1 0 -1153 c-1 -635 2 -1155 5 -1157 6 -4 552 342 560 355 4 6 5 1567 1 1618
-1 8 -20 12 -61 12 l-60 0 0 -32 c-1 -18 -1 -370 -2 -783 l0 -750 -150 -95
c-82 -52 -154 -96 -159 -98 -5 -2 -9 388 -9 977 l0 981 792 2 792 3 162 275
c88 151 159 277 158 279 -5 6 -1882 7 -1929 1z"/>
</g>
</svg>
